<?xml version="1.0" encoding="UTF-8"?>
<svg xmlns="http://www.w3.org/2000/svg" xmlns:xlink="http://www.w3.org/1999/xlink" width="24pt" height="24pt" viewBox="0 0 24 24" version="1.1">
<g id="surface1">
<path style=" stroke:none;fill-rule:nonzero;fill:rgb(0%,0%,0%);fill-opacity:1;" d="M 10.0625 18.882812 C 8.898438 18.882812 7.953125 19.828125 7.953125 20.992188 C 7.953125 22.15625 8.898438 23.105469 10.0625 23.105469 C 11.226562 23.105469 12.175781 22.15625 12.175781 20.992188 C 12.175781 19.828125 11.226562 18.882812 10.0625 18.882812 Z M 10.0625 21.925781 C 9.550781 21.925781 9.132812 21.507812 9.132812 20.992188 C 9.132812 20.480469 9.550781 20.0625 10.0625 20.0625 C 10.578125 20.0625 10.996094 20.480469 10.996094 20.992188 C 10.996094 21.507812 10.578125 21.925781 10.0625 21.925781 Z M 10.0625 21.925781 "/>
<path style=" stroke:none;fill-rule:nonzero;fill:rgb(0%,0%,0%);fill-opacity:1;" d="M 17.46875 18.882812 C 16.304688 18.882812 15.355469 19.828125 15.355469 20.992188 C 15.355469 22.15625 16.304688 23.105469 17.46875 23.105469 C 18.632812 23.105469 19.578125 22.15625 19.578125 20.992188 C 19.578125 19.828125 18.632812 18.882812 17.46875 18.882812 Z M 17.46875 21.925781 C 16.953125 21.925781 16.535156 21.507812 16.535156 20.992188 C 16.535156 20.480469 16.953125 20.0625 17.46875 20.0625 C 17.980469 20.0625 18.398438 20.480469 18.398438 20.992188 C 18.398438 21.507812 17.980469 21.925781 17.46875 21.925781 Z M 17.46875 21.925781 "/>
<path style=" stroke:none;fill-rule:nonzero;fill:rgb(0%,0%,0%);fill-opacity:1;" d="M 17.988281 7.769531 L 9.542969 7.769531 C 9.214844 7.769531 8.953125 8.035156 8.953125 8.359375 C 8.953125 8.683594 9.21875 8.949219 9.542969 8.949219 L 17.988281 8.949219 C 18.3125 8.949219 18.574219 8.683594 18.574219 8.359375 C 18.574219 8.035156 18.3125 7.769531 17.988281 7.769531 Z M 17.988281 7.769531 "/>
<path style=" stroke:none;fill-rule:nonzero;fill:rgb(0%,0%,0%);fill-opacity:1;" d="M 17.527344 10.828125 L 10 10.828125 C 9.675781 10.828125 9.414062 11.09375 9.414062 11.417969 C 9.414062 11.746094 9.675781 12.007812 10 12.007812 L 17.527344 12.007812 C 17.851562 12.007812 18.117188 11.746094 18.117188 11.417969 C 18.117188 11.09375 17.851562 10.828125 17.527344 10.828125 Z M 17.527344 10.828125 "/>
<path style=" stroke:none;fill-rule:nonzero;fill:rgb(0%,0%,0%);fill-opacity:1;" d="M 23.734375 5.144531 C 23.511719 4.867188 23.175781 4.710938 22.820312 4.710938 L 4.464844 4.710938 L 4.09375 2.910156 C 4.019531 2.535156 3.761719 2.21875 3.410156 2.066406 L 0.824219 0.945312 C 0.527344 0.816406 0.179688 0.953125 0.0507812 1.25 C -0.0820312 1.550781 0.0546875 1.894531 0.355469 2.027344 L 2.941406 3.148438 L 5.792969 16.988281 C 5.90625 17.535156 6.390625 17.929688 6.945312 17.929688 L 21.0625 17.929688 C 21.390625 17.929688 21.652344 17.664062 21.652344 17.339844 C 21.652344 17.015625 21.390625 16.75 21.0625 16.75 L 6.945312 16.75 L 6.601562 15.066406 L 21.171875 15.066406 C 21.730469 15.066406 22.214844 14.671875 22.328125 14.125 L 23.976562 6.125 C 24.046875 5.777344 23.960938 5.421875 23.734375 5.144531 Z M 21.171875 13.890625 L 6.355469 13.890625 L 4.707031 5.890625 L 22.820312 5.890625 Z M 21.171875 13.890625 "/>
</g>
</svg>
