<?xml version="1.0" encoding="UTF-8"?>
<svg xmlns="http://www.w3.org/2000/svg" xmlns:xlink="http://www.w3.org/1999/xlink" width="40pt" height="40pt" viewBox="0 0 40 40" version="1.1">
<g id="surface1">
<path style=" stroke:none;fill-rule:nonzero;fill:rgb(0%,0%,0%);fill-opacity:1;" d="M 35.832031 6.667969 L 4.167969 6.667969 C 1.871094 6.667969 0 8.535156 0 10.832031 L 0 29.167969 C 0 31.464844 1.871094 33.332031 4.167969 33.332031 L 35.832031 33.332031 C 38.128906 33.332031 40 31.464844 40 29.167969 L 40 10.832031 C 40 8.535156 38.128906 6.667969 35.832031 6.667969 Z M 38.332031 29.167969 C 38.332031 30.546875 37.210938 31.667969 35.832031 31.667969 L 4.167969 31.667969 C 2.789062 31.667969 1.667969 30.546875 1.667969 29.167969 L 1.667969 10.832031 C 1.667969 9.453125 2.789062 8.332031 4.167969 8.332031 L 35.832031 8.332031 C 37.210938 8.332031 38.332031 9.453125 38.332031 10.832031 Z M 38.332031 29.167969 "/>
<path style=" stroke:none;fill-rule:nonzero;fill:rgb(0%,0%,0%);fill-opacity:1;" d="M 39.167969 11.667969 L 0.832031 11.667969 C 0.375 11.667969 0 12.039062 0 12.5 L 0 17.5 C 0 17.960938 0.375 18.332031 0.832031 18.332031 L 39.167969 18.332031 C 39.625 18.332031 40 17.960938 40 17.5 L 40 12.5 C 40 12.039062 39.625 11.667969 39.167969 11.667969 Z M 38.332031 16.667969 L 1.667969 16.667969 L 1.667969 13.332031 L 38.332031 13.332031 Z M 38.332031 16.667969 "/>
<path style=" stroke:none;fill-rule:nonzero;fill:rgb(0%,0%,0%);fill-opacity:1;" d="M 15.832031 23.332031 L 5.832031 23.332031 C 5.375 23.332031 5 23.707031 5 24.167969 C 5 24.625 5.375 25 5.832031 25 L 15.832031 25 C 16.292969 25 16.667969 24.625 16.667969 24.167969 C 16.667969 23.707031 16.292969 23.332031 15.832031 23.332031 Z M 15.832031 23.332031 "/>
<path style=" stroke:none;fill-rule:nonzero;fill:rgb(0%,0%,0%);fill-opacity:1;" d="M 15.832031 26.667969 L 5.832031 26.667969 C 5.375 26.667969 5 27.039062 5 27.5 C 5 27.960938 5.375 28.332031 5.832031 28.332031 L 15.832031 28.332031 C 16.292969 28.332031 16.667969 27.960938 16.667969 27.5 C 16.667969 27.039062 16.292969 26.667969 15.832031 26.667969 Z M 15.832031 26.667969 "/>
<path style=" stroke:none;fill-rule:nonzero;fill:rgb(0%,0%,0%);fill-opacity:1;" d="M 32.5 21.667969 L 30.832031 21.667969 C 29.453125 21.667969 28.332031 22.789062 28.332031 24.167969 L 28.332031 25.832031 C 28.332031 27.210938 29.453125 28.332031 30.832031 28.332031 L 32.5 28.332031 C 33.878906 28.332031 35 27.210938 35 25.832031 L 35 24.167969 C 35 22.789062 33.878906 21.667969 32.5 21.667969 Z M 33.332031 25.832031 C 33.332031 26.292969 32.960938 26.667969 32.5 26.667969 L 30.832031 26.667969 C 30.375 26.667969 30 26.292969 30 25.832031 L 30 24.167969 C 30 23.707031 30.375 23.332031 30.832031 23.332031 L 32.5 23.332031 C 32.960938 23.332031 33.332031 23.707031 33.332031 24.167969 Z M 33.332031 25.832031 "/>
</g>
</svg>
