<?xml version="1.0" encoding="UTF-8"?>
<svg xmlns="http://www.w3.org/2000/svg" xmlns:xlink="http://www.w3.org/1999/xlink" width="24pt" height="24pt" viewBox="0 0 24 24" version="1.1">
<g id="surface1">
<path style=" stroke:none;fill-rule:nonzero;fill:rgb(0%,0%,0%);fill-opacity:1;" d="M 17.195312 2.066406 C 15.191406 2.054688 13.289062 2.933594 12 4.464844 C 10.71875 2.921875 8.808594 2.042969 6.804688 2.066406 C 3.046875 2.066406 0 5.113281 0 8.871094 C 0 15.3125 11.242188 21.601562 11.695312 21.84375 C 11.878906 21.964844 12.121094 21.964844 12.304688 21.84375 C 12.757812 21.601562 24 15.402344 24 8.871094 C 24 5.113281 20.953125 2.066406 17.195312 2.066406 Z M 12 20.628906 C 10.238281 19.59375 1.214844 14.097656 1.214844 8.871094 C 1.214844 5.785156 3.71875 3.28125 6.804688 3.28125 C 8.695312 3.257812 10.464844 4.210938 11.484375 5.800781 C 11.691406 6.085938 12.089844 6.152344 12.375 5.945312 C 12.429688 5.90625 12.476562 5.855469 12.515625 5.800781 C 14.207031 3.21875 17.671875 2.492188 20.253906 4.183594 C 21.835938 5.21875 22.789062 6.980469 22.785156 8.871094 C 22.785156 14.15625 13.761719 19.625 12 20.628906 Z M 12 20.628906 "/>
</g>
</svg>
