<svg xmlns="http://www.w3.org/2000/svg" enable-background="new 0 0 24 24" height="22" width="24" style=""><rect id="backgroundrect" width="100%" height="100%" x="0" y="0" fill="none" stroke="none"/><g class="currentLayer" style=""><title>Layer 1</title><g id="svg_1" class="" fill="#484848" fill-opacity="1"><path d="m17.452528288841247,22 c-0.16800000000000004,0 -0.3400000000000001,-0.021000000000000005 -0.51,-0.06600000000000002 l-15.463,-4.141 c-1.06,-0.29200000000000004 -1.6920000000000002,-1.3900000000000001 -1.4140000000000001,-2.45 l1.951,-7.272 c0.07200000000000001,-0.267 0.3460000000000001,-0.42200000000000004 0.6120000000000001,-0.35400000000000004 c0.267,0.07100000000000001 0.42500000000000004,0.3460000000000001 0.35400000000000004,0.6120000000000001 l-1.9500000000000002,7.27 c-0.139,0.53 0.17900000000000002,1.082 0.7100000000000001,1.229 l15.457,4.139 c0.531,0.14 1.079,-0.17600000000000002 1.217,-0.7040000000000001 l0.781,-2.894 c0.07200000000000001,-0.267 0.3460000000000001,-0.42600000000000005 0.6130000000000001,-0.35300000000000004 c0.267,0.07200000000000001 0.42400000000000004,0.3470000000000001 0.35300000000000004,0.6130000000000001 l-0.78,2.89 c-0.23500000000000001,0.8900000000000001 -1.045,1.481 -1.931,1.481 z" id="svg_2" fill="#484848" fill-opacity="1"/></g><g id="svg_3" class="" fill="#484848" fill-opacity="1"><path d="m21.999528288841248,16 h-16 c-1.103,0 -2,-0.8970000000000001 -2,-2 v-12 c0,-1.103 0.8970000000000001,-2 2,-2 h16 c1.103,0 2,0.8970000000000001 2,2 v12 c0,1.103 -0.8970000000000001,2 -2,2 zm-16,-15 c-0.551,0 -1,0.44900000000000007 -1,1 v12 c0,0.551 0.44900000000000007,1 1,1 h16 c0.551,0 1,-0.44900000000000007 1,-1 v-12 c0,-0.551 -0.44900000000000007,-1 -1,-1 z" id="svg_4" fill="#484848" fill-opacity="1"/></g><g id="svg_5" class="" fill="#484848" fill-opacity="1"><path d="m8.999528288841248,7 c-1.103,0 -2,-0.8970000000000001 -2,-2 s0.8970000000000001,-2 2,-2 s2,0.8970000000000001 2,2 s-0.8970000000000001,2 -2,2 zm0,-3 c-0.551,0 -1,0.44900000000000007 -1,1 s0.44900000000000007,1 1,1 s1,-0.44900000000000007 1,-1 s-0.44900000000000007,-1 -1,-1 z" id="svg_6" fill="#484848" fill-opacity="1"/></g><g id="svg_7" class="" fill="#484848" fill-opacity="1"><path d="m4.569528288841248,14.93 c-0.128,0 -0.256,-0.04900000000000001 -0.35400000000000004,-0.14600000000000002 c-0.19500000000000003,-0.19500000000000003 -0.19500000000000003,-0.512 0,-0.7070000000000001 l4.723,-4.723 c0.5660000000000001,-0.5660000000000001 1.5550000000000002,-0.5660000000000001 2.121,0 l1.4060000000000001,1.4060000000000001 l3.8920000000000003,-4.67 c0.28300000000000003,-0.3390000000000001 0.6990000000000002,-0.536 1.142,-0.54 h0.011000000000000003 c0.43800000000000006,0 0.8530000000000001,0.19000000000000003 1.139,0.523 l5.23,6.102 c0.18000000000000002,0.20900000000000002 0.15600000000000003,0.525 -0.05400000000000001,0.7050000000000001 c-0.20900000000000002,0.18000000000000002 -0.524,0.15700000000000003 -0.7050000000000001,-0.05400000000000001 l-5.23,-6.102 c-0.09700000000000003,-0.11200000000000002 -0.231,-0.17400000000000002 -0.38000000000000006,-0.17400000000000002 c-0.10400000000000001,-0.009000000000000003 -0.28700000000000003,0.06300000000000001 -0.38400000000000006,0.18000000000000002 l-4.243,5.091 c-0.09000000000000002,0.10800000000000001 -0.22100000000000003,0.17300000000000001 -0.36200000000000004,0.17900000000000002 c-0.14200000000000002,0.010000000000000002 -0.277,-0.04600000000000001 -0.37600000000000006,-0.14600000000000002 l-1.7930000000000001,-1.7930000000000001 c-0.18900000000000003,-0.18800000000000003 -0.518,-0.18800000000000003 -0.7070000000000001,0 l-4.723,4.723 c-0.09700000000000003,0.09700000000000003 -0.22500000000000003,0.14600000000000002 -0.35300000000000004,0.14600000000000002 z" id="svg_8" fill="#484848" fill-opacity="1"/></g></g></svg>