<?xml version="1.0" encoding="UTF-8"?>
<svg xmlns="http://www.w3.org/2000/svg" xmlns:xlink="http://www.w3.org/1999/xlink" width="40pt" height="40pt" viewBox="0 0 40 40" version="1.1">
<g id="surface1">
<path style=" stroke:none;fill-rule:nonzero;fill:rgb(0%,0%,0%);fill-opacity:1;" d="M 35.910156 6.476562 L 20.597656 0.121094 C 20.214844 -0.0390625 19.785156 -0.0390625 19.402344 0.121094 L 4.089844 6.476562 C 3.503906 6.71875 3.125 7.289062 3.125 7.921875 L 3.125 15.648438 C 3.125 26.289062 9.558594 35.863281 19.410156 39.882812 C 19.789062 40.039062 20.210938 40.039062 20.589844 39.882812 C 30.441406 35.863281 36.875 26.289062 36.875 15.648438 L 36.875 7.921875 C 36.875 7.289062 36.496094 6.71875 35.910156 6.476562 Z M 33.75 15.648438 C 33.75 24.695312 28.4375 33.023438 20 36.742188 C 11.789062 33.121094 6.25 24.941406 6.25 15.648438 L 6.25 8.964844 L 20 3.253906 L 33.75 8.964844 Z M 18.273438 20.914062 L 24.988281 14.199219 C 25.597656 13.589844 26.589844 13.589844 27.199219 14.199219 C 27.808594 14.808594 27.808594 15.800781 27.199219 16.410156 L 19.378906 24.230469 C 18.765625 24.839844 17.777344 24.839844 17.167969 24.230469 L 12.800781 19.863281 C 12.191406 19.253906 12.191406 18.261719 12.800781 17.652344 C 13.410156 17.042969 14.402344 17.042969 15.011719 17.652344 Z M 18.273438 20.914062 "/>
</g>
</svg>
