<?xml version="1.0" encoding="UTF-8"?>
<svg xmlns="http://www.w3.org/2000/svg" xmlns:xlink="http://www.w3.org/1999/xlink" width="24pt" height="24pt" viewBox="0 0 24 24" version="1.1">
<g id="surface1">
<path style=" stroke:none;fill-rule:nonzero;fill:rgb(0%,0%,0%);fill-opacity:1;" d="M 11.503906 18.757812 C 11.40625 18.773438 11.320312 18.839844 11.285156 18.933594 C 11.246094 19.03125 11.265625 19.136719 11.328125 19.214844 C 11.394531 19.292969 11.492188 19.332031 11.59375 19.3125 C 11.726562 19.292969 11.863281 19.28125 12 19.28125 C 12.15625 19.28125 12.28125 19.15625 12.28125 19 C 12.28125 18.84375 12.15625 18.71875 12 18.71875 C 11.832031 18.71875 11.667969 18.730469 11.503906 18.757812 Z M 11.503906 18.757812 "/>
<path style=" stroke:none;fill-rule:nonzero;fill:rgb(0%,0%,0%);fill-opacity:1;" d="M 23.167969 14.675781 L 23.101562 14.675781 L 19.875 6.917969 L 21.152344 6.917969 C 21.621094 7.367188 22.363281 7.351562 22.8125 6.886719 C 23.261719 6.421875 23.25 5.679688 22.785156 5.230469 C 22.320312 4.777344 21.578125 4.789062 21.128906 5.25 L 15.886719 5.25 C 15.648438 4.980469 15.300781 4.824219 14.941406 4.824219 L 12.835938 4.824219 L 12.835938 2.898438 C 13.289062 2.4375 13.289062 1.695312 12.828125 1.238281 C 12.371094 0.78125 11.628906 0.78125 11.171875 1.238281 C 10.710938 1.695312 10.710938 2.4375 11.167969 2.898438 L 11.167969 4.824219 L 9.058594 4.824219 C 8.699219 4.824219 8.351562 4.976562 8.113281 5.25 L 2.871094 5.25 C 2.421875 4.785156 1.679688 4.777344 1.214844 5.226562 C 0.75 5.679688 0.738281 6.421875 1.1875 6.886719 C 1.636719 7.351562 2.378906 7.367188 2.847656 6.917969 L 4.125 6.917969 L 0.898438 14.675781 L 0.832031 14.675781 C 0.675781 14.675781 0.550781 14.800781 0.550781 14.957031 C 0.550781 16.996094 2.328125 18.65625 4.515625 18.65625 C 6.703125 18.65625 8.480469 16.996094 8.480469 14.957031 C 8.480469 14.800781 8.355469 14.675781 8.199219 14.675781 L 8.132812 14.675781 L 4.90625 6.917969 L 8.113281 6.917969 C 8.351562 7.191406 8.699219 7.34375 9.058594 7.34375 L 11.164062 7.34375 L 11.164062 17.773438 C 9.730469 18.074219 8.609375 19.121094 8.386719 20.4375 L 8.28125 20.4375 C 7.378906 20.4375 6.648438 21.167969 6.648438 22.070312 L 6.648438 22.820312 C 6.648438 22.976562 6.773438 23.101562 6.929688 23.101562 L 17.070312 23.101562 C 17.226562 23.101562 17.351562 22.976562 17.351562 22.820312 L 17.351562 22.070312 C 17.351562 21.167969 16.621094 20.4375 15.71875 20.4375 L 15.609375 20.4375 C 15.390625 19.121094 14.269531 18.070312 12.835938 17.773438 L 12.835938 7.34375 L 14.941406 7.34375 C 15.300781 7.34375 15.648438 7.191406 15.886719 6.917969 L 19.09375 6.917969 L 15.867188 14.675781 L 15.800781 14.675781 C 15.644531 14.675781 15.519531 14.800781 15.519531 14.957031 C 15.519531 16.996094 17.296875 18.65625 19.484375 18.65625 C 21.671875 18.65625 23.449219 16.996094 23.449219 14.957031 C 23.449219 14.800781 23.324219 14.675781 23.167969 14.675781 Z M 21.964844 5.457031 C 22.304688 5.457031 22.578125 5.734375 22.578125 6.070312 C 22.578125 6.410156 22.304688 6.683594 21.964844 6.683594 C 21.628906 6.683594 21.355469 6.410156 21.355469 6.070312 C 21.355469 5.734375 21.628906 5.460938 21.964844 5.457031 Z M 2.035156 6.683594 C 1.695312 6.683594 1.421875 6.410156 1.421875 6.070312 C 1.421875 5.734375 1.695312 5.457031 2.035156 5.457031 C 2.371094 5.457031 2.644531 5.734375 2.644531 6.070312 C 2.644531 6.410156 2.371094 6.683594 2.035156 6.683594 Z M 4.515625 18.09375 C 3.121094 18.09375 1.917969 17.3125 1.394531 16.203125 L 7.636719 16.203125 C 7.113281 17.3125 5.910156 18.09375 4.515625 18.09375 Z M 7.835938 15.640625 L 1.195312 15.640625 C 1.164062 15.507812 1.140625 15.375 1.125 15.238281 L 7.902344 15.238281 C 7.890625 15.375 7.867188 15.507812 7.835938 15.640625 Z M 7.523438 14.675781 L 1.507812 14.675781 L 4.515625 7.445312 Z M 3.171875 6.355469 C 3.21875 6.175781 3.21875 5.992188 3.179688 5.8125 L 7.828125 5.8125 C 7.789062 5.992188 7.789062 6.175781 7.828125 6.355469 Z M 12 1.460938 C 12.339844 1.460938 12.613281 1.734375 12.613281 2.074219 C 12.613281 2.410156 12.339844 2.683594 12 2.683594 C 11.660156 2.683594 11.386719 2.410156 11.386719 2.074219 C 11.386719 1.734375 11.664062 1.460938 12 1.460938 Z M 12.273438 3.214844 L 12.273438 4.824219 L 11.730469 4.824219 L 11.730469 3.214844 C 11.90625 3.257812 12.09375 3.257812 12.273438 3.214844 Z M 15.039062 20.4375 L 14.4375 20.4375 C 14.28125 20.4375 14.15625 20.5625 14.15625 20.71875 C 14.15625 20.875 14.28125 21 14.4375 21 L 15.71875 21 C 16.3125 21 16.789062 21.480469 16.789062 22.070312 L 16.789062 22.539062 L 7.210938 22.539062 L 7.210938 22.070312 C 7.210938 21.480469 7.6875 21 8.28125 21 L 12.5625 21 C 12.71875 21 12.84375 20.875 12.84375 20.71875 C 12.84375 20.5625 12.71875 20.4375 12.5625 20.4375 L 10.03125 20.4375 C 10.03125 20.433594 10.035156 20.429688 10.035156 20.425781 C 10.164062 20.109375 10.40625 19.832031 10.738281 19.628906 C 10.871094 19.550781 10.917969 19.382812 10.847656 19.242188 C 10.808594 19.175781 10.746094 19.128906 10.671875 19.109375 C 10.597656 19.089844 10.519531 19.101562 10.453125 19.140625 C 10.011719 19.410156 9.6875 19.785156 9.515625 20.214844 C 9.484375 20.289062 9.488281 20.367188 9.519531 20.4375 L 8.960938 20.4375 C 9.222656 19.1875 10.496094 18.25 12 18.25 C 13.503906 18.25 14.777344 19.1875 15.039062 20.4375 Z M 11.726562 17.699219 L 11.726562 7.34375 L 12.273438 7.34375 L 12.273438 17.699219 C 12.183594 17.691406 12.089844 17.6875 12 17.6875 C 11.910156 17.6875 11.816406 17.691406 11.726562 17.699219 Z M 14.941406 6.78125 L 9.058594 6.78125 C 8.671875 6.78125 8.359375 6.46875 8.359375 6.085938 C 8.359375 5.699219 8.671875 5.386719 9.058594 5.386719 L 14.941406 5.386719 C 15.328125 5.386719 15.640625 5.699219 15.640625 6.085938 C 15.640625 6.46875 15.328125 6.78125 14.941406 6.78125 Z M 16.171875 6.355469 C 16.210938 6.175781 16.210938 5.992188 16.171875 5.8125 L 20.820312 5.8125 C 20.78125 5.992188 20.78125 6.175781 20.828125 6.355469 Z M 19.484375 7.445312 L 22.492188 14.675781 L 16.476562 14.675781 Z M 19.484375 18.09375 C 18.089844 18.09375 16.886719 17.3125 16.363281 16.203125 L 22.605469 16.203125 C 22.082031 17.3125 20.878906 18.09375 19.484375 18.09375 Z M 22.804688 15.640625 L 16.164062 15.640625 C 16.132812 15.507812 16.109375 15.375 16.09375 15.238281 L 22.875 15.238281 C 22.859375 15.375 22.835938 15.507812 22.804688 15.640625 Z M 22.804688 15.640625 "/>
</g>
</svg>
