<?xml version="1.0" encoding="UTF-8"?>
<svg xmlns="http://www.w3.org/2000/svg" xmlns:xlink="http://www.w3.org/1999/xlink" width="20pt" height="20pt" viewBox="0 0 20 20" version="1.1">
<g id="surface1">
<path style=" stroke:none;fill-rule:nonzero;fill:rgb(81.568627%,82.352941%,83.137255%);fill-opacity:1;" d="M 18.125 15.625 L 5.625 15.625 C 4.933594 15.625 4.375 15.066406 4.375 14.375 L 4.375 13.75 C 4.375 13.058594 4.933594 12.5 5.625 12.5 L 5.9375 12.5 C 6.109375 12.5 6.25 12.640625 6.25 12.8125 C 6.25 12.984375 6.109375 13.125 5.9375 13.125 L 5.625 13.125 C 5.28125 13.125 5 13.40625 5 13.75 L 5 14.375 C 5 14.71875 5.28125 15 5.625 15 L 18.125 15 C 18.296875 15 18.4375 15.140625 18.4375 15.3125 C 18.4375 15.484375 18.296875 15.625 18.125 15.625 Z M 18.125 15.625 "/>
<path style=" stroke:none;fill-rule:nonzero;fill:rgb(49.411765%,52.156863%,53.72549%);fill-opacity:1;" d="M 8.125 16.25 C 8.125 16.941406 7.566406 17.5 6.875 17.5 C 6.183594 17.5 5.625 16.941406 5.625 16.25 C 5.625 15.558594 6.183594 15 6.875 15 C 7.566406 15 8.125 15.558594 8.125 16.25 Z M 8.125 16.25 "/>
<path style=" stroke:none;fill-rule:nonzero;fill:rgb(49.411765%,52.156863%,53.72549%);fill-opacity:1;" d="M 16.875 16.25 C 16.875 16.941406 16.316406 17.5 15.625 17.5 C 14.933594 17.5 14.375 16.941406 14.375 16.25 C 14.375 15.558594 14.933594 15 15.625 15 C 16.316406 15 16.875 15.558594 16.875 16.25 Z M 16.875 16.25 "/>
<path style=" stroke:none;fill-rule:nonzero;fill:rgb(25.490196%,27.45098%,28.627451%);fill-opacity:1;" d="M 7.1875 16.25 C 7.1875 16.421875 7.046875 16.5625 6.875 16.5625 C 6.703125 16.5625 6.5625 16.421875 6.5625 16.25 C 6.5625 16.078125 6.703125 15.9375 6.875 15.9375 C 7.046875 15.9375 7.1875 16.078125 7.1875 16.25 Z M 7.1875 16.25 "/>
<path style=" stroke:none;fill-rule:nonzero;fill:rgb(25.490196%,27.45098%,28.627451%);fill-opacity:1;" d="M 15.9375 16.25 C 15.9375 16.421875 15.796875 16.5625 15.625 16.5625 C 15.453125 16.5625 15.3125 16.421875 15.3125 16.25 C 15.3125 16.078125 15.453125 15.9375 15.625 15.9375 C 15.796875 15.9375 15.9375 16.078125 15.9375 16.25 Z M 15.9375 16.25 "/>
<path style=" stroke:none;fill-rule:nonzero;fill:rgb(81.568627%,82.352941%,83.137255%);fill-opacity:1;" d="M 19.304688 5.117188 C 19.246094 5.042969 19.15625 5 19.0625 5 L 4.109375 5 L 3.429688 2.117188 C 3.394531 1.976562 3.269531 1.875 3.125 1.875 L 0.9375 1.875 C 0.765625 1.875 0.625 2.015625 0.625 2.1875 C 0.625 2.359375 0.765625 2.5 0.9375 2.5 L 2.878906 2.5 L 5.320312 12.882812 C 5.355469 13.023438 5.480469 13.125 5.625 13.125 L 17.5 13.125 C 17.648438 13.125 17.777344 13.019531 17.804688 12.875 L 19.367188 5.375 C 19.386719 5.285156 19.363281 5.1875 19.304688 5.117188 Z M 13.425781 5.625 L 15.894531 5.625 L 15.738281 6.875 L 13.371094 6.875 Z M 9.699219 5.625 L 9.753906 6.875 L 7.386719 6.875 L 7.230469 5.625 Z M 4.253906 5.625 L 6.597656 5.625 L 6.753906 6.875 L 4.550781 6.875 Z M 4.695312 7.5 L 6.832031 7.5 L 6.988281 8.75 L 4.988281 8.75 Z M 5.136719 9.375 L 7.066406 9.375 L 7.222656 10.625 L 5.429688 10.625 Z M 5.871094 12.5 L 5.578125 11.25 L 7.300781 11.25 L 7.457031 12.5 Z M 7.464844 7.5 L 9.777344 7.5 L 9.832031 8.75 L 7.621094 8.75 Z M 7.699219 9.375 L 9.855469 9.375 L 9.910156 10.625 L 7.855469 10.625 Z M 8.089844 12.5 L 7.933594 11.25 L 9.933594 11.25 L 9.988281 12.5 Z M 12.511719 12.5 L 10.613281 12.5 L 10.558594 11.25 L 12.566406 11.25 Z M 12.589844 10.625 L 10.535156 10.625 L 10.480469 9.375 L 12.644531 9.375 Z M 12.667969 8.75 L 10.457031 8.75 L 10.402344 7.5 L 12.722656 7.5 Z M 12.746094 6.875 L 10.378906 6.875 L 10.324219 5.625 L 12.800781 5.625 Z M 15.035156 12.5 L 13.136719 12.5 L 13.191406 11.25 L 15.191406 11.25 Z M 15.269531 10.625 L 13.214844 10.625 L 13.269531 9.375 L 15.425781 9.375 Z M 15.503906 8.75 L 13.292969 8.75 L 13.347656 7.5 L 15.660156 7.5 Z M 17.246094 12.5 L 15.667969 12.5 L 15.824219 11.25 L 17.507812 11.25 Z M 17.636719 10.625 L 15.902344 10.625 L 16.058594 9.375 L 17.898438 9.375 Z M 18.027344 8.75 L 16.136719 8.75 L 16.292969 7.5 L 18.289062 7.5 Z M 18.417969 6.875 L 16.371094 6.875 L 16.527344 5.625 L 18.679688 5.625 Z M 18.417969 6.875 "/>
</g>
</svg>
