<?xml version="1.0" encoding="UTF-8"?>
<svg xmlns="http://www.w3.org/2000/svg" xmlns:xlink="http://www.w3.org/1999/xlink" width="31pt" height="20pt" viewBox="0 0 31 20" version="1.1">
<g id="surface1">
<path style=" stroke:none;fill-rule:nonzero;fill:rgb(0%,0%,0%);fill-opacity:1;" d="M 30.96875 8.746094 L 27.398438 1.652344 C 27.292969 1.449219 26.953125 1.335938 26.632812 1.402344 L 0.417969 6.898438 C 0.101562 6.964844 -0.0742188 7.1875 0.03125 7.390625 L 1.722656 10.75 C 1.71875 10.753906 1.71875 10.761719 1.71875 10.769531 L 1.71875 18.226562 C 1.71875 18.441406 1.992188 18.617188 2.324219 18.617188 L 29.890625 18.617188 C 30.226562 18.617188 30.496094 18.441406 30.496094 18.226562 L 30.496094 10.769531 C 30.496094 10.550781 30.226562 10.378906 29.890625 10.378906 L 25.148438 10.378906 L 30.582031 9.238281 C 30.898438 9.171875 31.074219 8.953125 30.96875 8.746094 Z M 29.285156 11.160156 L 29.285156 17.835938 L 2.929688 17.835938 L 2.929688 11.160156 L 6.285156 11.160156 L 6.285156 15.511719 C 6.285156 15.726562 6.554688 15.902344 6.890625 15.902344 C 7.222656 15.902344 7.496094 15.726562 7.496094 15.511719 L 7.496094 11.160156 Z M 21.230469 10.378906 L 2.808594 10.378906 L 1.367188 7.519531 L 4.558594 6.851562 L 5.78125 9.246094 C 5.863281 9.410156 6.101562 9.515625 6.355469 9.515625 C 6.417969 9.515625 6.480469 9.507812 6.546875 9.496094 C 6.863281 9.425781 7.035156 9.207031 6.929688 9 L 5.710938 6.609375 L 26.433594 2.265625 L 29.632812 8.617188 Z M 21.230469 10.378906 "/>
<path style=" stroke:none;fill-rule:nonzero;fill:rgb(0%,0%,0%);fill-opacity:1;" d="M 25.515625 3.976562 C 25.410156 3.773438 25.070312 3.660156 24.75 3.726562 L 8.964844 7.039062 C 8.648438 7.105469 8.472656 7.324219 8.578125 7.53125 C 8.660156 7.695312 8.898438 7.800781 9.152344 7.800781 C 9.214844 7.800781 9.277344 7.792969 9.339844 7.78125 L 25.125 4.46875 C 25.445312 4.402344 25.617188 4.183594 25.515625 3.976562 Z M 25.515625 3.976562 "/>
<path style=" stroke:none;fill-rule:nonzero;fill:rgb(0%,0%,0%);fill-opacity:1;" d="M 22.851562 6.515625 L 25.839844 5.890625 C 26.160156 5.824219 26.332031 5.601562 26.230469 5.398438 C 26.125 5.191406 25.785156 5.078125 25.464844 5.144531 L 22.476562 5.773438 C 22.160156 5.839844 21.984375 6.058594 22.089844 6.265625 C 22.171875 6.429688 22.410156 6.535156 22.664062 6.535156 C 22.726562 6.535156 22.789062 6.527344 22.851562 6.515625 Z M 22.851562 6.515625 "/>
<path style=" stroke:none;fill-rule:nonzero;fill:rgb(0%,0%,0%);fill-opacity:1;" d="M 25.378906 8.308594 C 25.460938 8.476562 25.699219 8.582031 25.953125 8.582031 C 26.015625 8.582031 26.078125 8.574219 26.140625 8.5625 L 27.085938 8.363281 C 27.402344 8.296875 27.578125 8.074219 27.476562 7.871094 C 27.371094 7.664062 27.03125 7.554688 26.710938 7.621094 L 25.765625 7.816406 C 25.449219 7.882812 25.273438 8.105469 25.378906 8.308594 Z M 25.378906 8.308594 "/>
<path style=" stroke:none;fill-rule:nonzero;fill:rgb(0%,0%,0%);fill-opacity:1;" d="M 23.65625 8.261719 L 22.707031 8.457031 C 22.390625 8.527344 22.21875 8.746094 22.320312 8.949219 C 22.402344 9.117188 22.640625 9.222656 22.894531 9.222656 C 22.957031 9.222656 23.019531 9.214844 23.082031 9.203125 L 24.027344 9.003906 C 24.347656 8.9375 24.519531 8.714844 24.417969 8.511719 C 24.3125 8.304688 23.972656 8.195312 23.65625 8.261719 Z M 23.65625 8.261719 "/>
<path style=" stroke:none;fill-rule:nonzero;fill:rgb(0%,0%,0%);fill-opacity:1;" d="M 15.207031 7.296875 L 9.679688 8.457031 C 9.363281 8.523438 9.1875 8.742188 9.292969 8.949219 C 9.375 9.113281 9.613281 9.21875 9.867188 9.21875 C 9.929688 9.21875 9.992188 9.210938 10.054688 9.199219 L 15.578125 8.039062 C 15.898438 7.972656 16.070312 7.753906 15.96875 7.546875 C 15.863281 7.34375 15.523438 7.230469 15.207031 7.296875 Z M 15.207031 7.296875 "/>
<path style=" stroke:none;fill-rule:nonzero;fill:rgb(0%,0%,0%);fill-opacity:1;" d="M 6.890625 16.421875 C 6.554688 16.421875 6.285156 16.59375 6.285156 16.8125 L 6.285156 16.964844 C 6.285156 17.179688 6.554688 17.355469 6.890625 17.355469 C 7.222656 17.355469 7.496094 17.179688 7.496094 16.964844 L 7.496094 16.8125 C 7.496094 16.59375 7.222656 16.421875 6.890625 16.421875 Z M 6.890625 16.421875 "/>
<path style=" stroke:none;fill-rule:nonzero;fill:rgb(0%,0%,0%);fill-opacity:1;" d="M 9.78125 12.605469 C 9.78125 12.820312 10.050781 12.996094 10.386719 12.996094 L 26.984375 12.996094 C 27.320312 12.996094 27.589844 12.820312 27.589844 12.605469 C 27.589844 12.386719 27.320312 12.214844 26.984375 12.214844 L 10.386719 12.214844 C 10.050781 12.214844 9.78125 12.386719 9.78125 12.605469 Z M 9.78125 12.605469 "/>
<path style=" stroke:none;fill-rule:nonzero;fill:rgb(0%,0%,0%);fill-opacity:1;" d="M 26.984375 13.703125 L 23.84375 13.703125 C 23.507812 13.703125 23.238281 13.878906 23.238281 14.09375 C 23.238281 14.3125 23.507812 14.484375 23.84375 14.484375 L 26.984375 14.484375 C 27.320312 14.484375 27.589844 14.3125 27.589844 14.09375 C 27.589844 13.878906 27.320312 13.703125 26.984375 13.703125 Z M 26.984375 13.703125 "/>
<path style=" stroke:none;fill-rule:nonzero;fill:rgb(0%,0%,0%);fill-opacity:1;" d="M 26.984375 16.304688 L 25.992188 16.304688 C 25.65625 16.304688 25.386719 16.480469 25.386719 16.695312 C 25.386719 16.910156 25.65625 17.085938 25.992188 17.085938 L 26.984375 17.085938 C 27.320312 17.085938 27.589844 16.910156 27.589844 16.695312 C 27.589844 16.480469 27.320312 16.304688 26.984375 16.304688 Z M 26.984375 16.304688 "/>
<path style=" stroke:none;fill-rule:nonzero;fill:rgb(0%,0%,0%);fill-opacity:1;" d="M 23.769531 16.304688 L 22.777344 16.304688 C 22.441406 16.304688 22.171875 16.480469 22.171875 16.695312 C 22.171875 16.910156 22.441406 17.085938 22.777344 17.085938 L 23.769531 17.085938 C 24.105469 17.085938 24.375 16.910156 24.375 16.695312 C 24.375 16.480469 24.105469 16.304688 23.769531 16.304688 Z M 23.769531 16.304688 "/>
<path style=" stroke:none;fill-rule:nonzero;fill:rgb(0%,0%,0%);fill-opacity:1;" d="M 16.195312 13.703125 L 10.386719 13.703125 C 10.050781 13.703125 9.78125 13.878906 9.78125 14.09375 C 9.78125 14.3125 10.050781 14.484375 10.386719 14.484375 L 16.195312 14.484375 C 16.53125 14.484375 16.800781 14.3125 16.800781 14.09375 C 16.800781 13.878906 16.53125 13.703125 16.195312 13.703125 Z M 16.195312 13.703125 "/>
</g>
</svg>
