<?xml version="1.0" encoding="UTF-8"?>
<svg xmlns="http://www.w3.org/2000/svg" xmlns:xlink="http://www.w3.org/1999/xlink" width="24pt" height="24pt" viewBox="0 0 24 24" version="1.1">
<g id="surface1">
<path style=" stroke:none;fill-rule:nonzero;fill:rgb(0%,0%,0%);fill-opacity:1;" d="M 3.195312 20.953125 C 3.367188 21.046875 7.457031 23.25 12 23.25 C 16.921875 23.25 20.660156 21.039062 20.816406 20.945312 C 20.929688 20.878906 21 20.757812 21 20.625 C 21 17.597656 20.070312 14.828125 18.386719 12.824219 C 17.207031 11.421875 15.726562 10.464844 14.09375 10.027344 C 16.152344 9.046875 17.257812 6.773438 16.753906 4.550781 C 16.253906 2.328125 14.277344 0.75 12 0.75 C 9.722656 0.75 7.746094 2.328125 7.246094 4.550781 C 6.742188 6.773438 7.847656 9.046875 9.90625 10.027344 C 8.273438 10.464844 6.792969 11.421875 5.613281 12.824219 C 3.929688 14.828125 3 17.597656 3 20.625 C 3 20.761719 3.074219 20.886719 3.195312 20.953125 Z M 7.875 5.625 C 7.875 3.347656 9.722656 1.5 12 1.5 C 14.277344 1.5 16.125 3.347656 16.125 5.625 C 16.125 7.902344 14.277344 9.75 12 9.75 C 9.722656 9.746094 7.878906 7.902344 7.875 5.625 Z M 6.1875 13.304688 C 7.710938 11.496094 9.773438 10.5 12 10.5 C 14.226562 10.5 16.289062 11.496094 17.8125 13.304688 C 19.34375 15.125 20.207031 17.640625 20.25 20.40625 C 19.445312 20.839844 16.109375 22.5 12 22.5 C 8.199219 22.5 4.617188 20.832031 3.75 20.398438 C 3.796875 17.636719 4.65625 15.125 6.1875 13.304688 Z M 6.1875 13.304688 "/>
</g>
</svg>
